<?xml version="1.0" standalone="no"?>
<!DOCTYPE svg PUBLIC "-//W3C//DTD SVG 20010904//EN"
 "http://www.w3.org/TR/2001/REC-SVG-20010904/DTD/svg10.dtd">
<svg version="1.0" xmlns="http://www.w3.org/2000/svg"
 width="571.000000pt" height="571.000000pt" viewBox="0 0 571.000000 571.000000"
 preserveAspectRatio="xMidYMid meet">
<metadata>
Created by potrace 1.11, written by Peter Selinger 2001-2013
</metadata>
<g transform="translate(0.000000,571.000000) scale(0.100000,-0.100000)"
fill="#000000" stroke="none">
<path d="M1695 4719 c-33 -5 -77 -11 -97 -13 -64 -9 -248 -57 -338 -88 -116
-40 -311 -138 -412 -205 -379 -253 -652 -620 -773 -1037 -29 -102 -29 -104
-60 -276 -14 -73 -12 -386 1 -489 84 -625 491 -1176 1070 -1447 127 -59 301
-119 404 -139 185 -36 225 -39 425 -39 174 0 230 4 330 23 204 38 375 94 529
173 l79 40 109 -52 c194 -92 373 -144 608 -177 30 -5 129 -8 220 -8 205 0 292
9 445 46 44 11 90 22 102 24 61 14 211 73 318 125 486 238 844 667 988 1185
48 172 61 275 62 485 0 194 -5 249 -40 405 -8 39 -16 75 -16 80 -4 29 -77 223
-118 310 -133 281 -345 536 -600 721 -256 185 -602 319 -908 351 -92 10 -372
10 -458 0 -207 -24 -445 -96 -637 -193 l-72 -36 -50 25 c-141 71 -280 123
-431 160 -91 23 -121 28 -235 44 -64 9 -384 10 -445 2z m395 -173 c172 -17
405 -79 538 -143 52 -26 53 -26 30 -41 -86 -59 -278 -241 -353 -337 -22 -27
-43 -52 -46 -55 -20 -18 -130 -197 -173 -283 -77 -152 -150 -367 -170 -503 -4
-22 -8 -50 -11 -62 -22 -115 -22 -412 0 -532 1 -8 5 -31 9 -50 65 -391 292
-804 582 -1057 55 -48 72 -63 122 -105 11 -9 30 -22 42 -28 l22 -12 -21 -15
c-37 -25 -226 -92 -333 -117 -158 -38 -248 -48 -413 -49 -283 -1 -538 59 -790
185 -415 207 -725 568 -869 1009 -51 159 -70 289 -71 484 0 159 9 307 20 325
2 4 7 22 10 41 21 121 96 324 171 459 38 69 127 206 143 220 3 3 24 27 46 55
156 194 426 393 660 484 39 16 79 32 90 36 11 4 25 9 32 11 7 1 43 11 80 22
190 57 438 79 653 58z m1885 0 c44 -5 82 -9 85 -11 3 -2 27 -6 55 -10 52 -6
171 -36 240 -60 340 -114 632 -326 843 -610 28 -38 56 -75 62 -82 5 -7 10 -15
10 -18 0 -3 12 -24 27 -48 99 -157 192 -420 220 -622 10 -75 11 -383 1 -450
-73 -500 -344 -923 -770 -1201 -76 -50 -265 -147 -308 -159 -14 -3 -34 -10
-45 -15 -89 -40 -268 -80 -424 -96 -238 -24 -525 9 -746 87 -110 38 -198 80
-188 88 4 4 35 27 68 52 84 62 269 249 338 341 121 162 213 333 277 513 30 87
68 231 76 288 1 15 8 64 14 110 7 45 12 129 13 187 5 582 -248 1111 -710 1483
l-83 66 56 26 c109 50 290 105 394 120 19 3 44 7 55 10 11 2 54 7 95 11 41 3
76 7 77 8 5 4 196 -2 268 -8z m-1102 -277 c98 -53 309 -246 411 -377 350 -446
452 -1030 275 -1566 -32 -96 -135 -319 -150 -324 -5 -2 -9 -8 -9 -14 0 -11
-99 -153 -146 -210 -57 -68 -212 -215 -284 -269 -120 -90 -106 -89 -205 -18
-89 63 -252 217 -322 304 -244 303 -377 675 -377 1055 0 260 52 489 163 726
88 186 239 389 392 526 55 50 218 177 227 178 2 0 13 -5 25 -11z"/>
</g>
</svg>
