<svg width="324" height="323" fill="none" xmlns="http://www.w3.org/2000/svg"><path d="M304.5 173c0 78.701-63.799 142.5-142.5 142.5-78.7 0-142.5-63.799-142.5-142.5C19.5 94.3 83.3 30.5 162 30.5c78.701 0 142.5 63.8 142.5 142.5z" fill="#0B262D" stroke="#0097BC" stroke-width="15"/><mask id="a" maskUnits="userSpaceOnUse" x="12" y="23" width="300" height="300"><path d="M312 173c0 82.843-67.157 150-150 150S12 255.843 12 173 79.157 23 162 23s150 67.157 150 150z" fill="#fff"/></mask><g mask="url(#a)"><path d="M205.629 191.794c0 25.843-20.318 46.794-45.382 46.794-25.063 0-45.381-20.951-45.381-46.794 0-25.844 20.318-46.794 45.381-46.794 25.064 0 45.382 20.95 45.382 46.794zM245 311c0-27.667-36.4-50.99-84.753-50.99S78.014 283.333 78 311h167z" fill="#fff"/><path d="M78 311h-1v1h1v-1zm167 0v1h1v-1h-1zm1 0c0-14.309-9.408-27.33-24.721-36.722-15.329-9.403-36.705-15.268-61.032-15.268v2c24.027 0 45.027 5.796 59.986 14.972C235.209 285.168 244 297.642 244 311h2zm-85.753-51.99c-24.327 0-45.082 5.866-59.79 15.278C85.755 283.696 77.007 296.721 77 311h2c.007-13.388 8.206-25.858 22.535-35.028 14.324-9.166 34.686-14.962 58.712-14.962v-2zm44.382-67.216c0 25.32-19.899 45.794-44.382 45.794v2c25.645 0 46.382-21.427 46.382-47.794h-2zm-44.382 45.794c-24.482 0-44.381-20.474-44.381-45.794h-2c0 26.367 20.737 47.794 46.381 47.794v-2zm-44.381-45.794c0-25.32 19.899-45.794 44.381-45.794v-2c-25.644 0-46.381 21.427-46.381 47.794h2zM160.247 146c24.483 0 44.382 20.474 44.382 45.794h2c0-26.367-20.737-47.794-46.382-47.794v2zM78 312h167v-2H78v2z" fill="#fff"/><path d="M304.5 173c0 78.701-63.799 142.5-142.5 142.5-78.7 0-142.5-63.799-142.5-142.5C19.5 94.3 83.3 30.5 162 30.5c78.701 0 142.5 63.8 142.5 142.5z" stroke="#0097BC" stroke-width="15"/></g><path d="M103.5 119c0 27.338-22.162 49.5-49.5 49.5S4.5 146.338 4.5 119 26.662 69.5 54 69.5s49.5 22.162 49.5 49.5z" fill="#0B262D" stroke="#0097BC" stroke-width="9"/><path d="M44.44 111.67c7.576-9.231 10.042-11.844 13.509-18.13 1.43-2.58 2.68-3.54 4.681-3.54 2.68 0 4.61 1.82 4.61 4.433 0 4.665-4.61 10.852-4.61 14.028 0 1.356 1.216 2.249 3.217 2.249h9.614c3.073 0 5.539 2.283 5.539 5.161 0 1.622-.608 2.978-1.644 3.772.786.695 1.287 2.051 1.287 3.441 0 1.819-.93 3.54-2.395 4.301.68.76 1.037 1.951 1.037 3.209 0 1.985-1.215 3.672-3.253 4.631.43.728.68 1.489.68 2.382 0 2.349-1.859 4.07-4.825 4.797-1.751.431-4.432.596-7.791.596h-3.717c-4.36 0-8.256-.893-11.508-2.415M44.44 111.67h-5.218c-6.04 0-11.222 6.253-11.222 14.524 0 8.072 5.718 14.391 12.223 14.391h8.648M44.44 111.67l-1.108 1.489c-3.074 4.201-4.253 7.94-4.253 13.134 0 5.392 2.645 9.892 7.183 12.836l2.61 1.456" stroke="#fff" stroke-width="5"/><path d="M211.5 54c0 27.338-22.162 49.5-49.5 49.5S112.5 81.338 112.5 54 134.662 4.5 162 4.5s49.5 22.162 49.5 49.5z" fill="#0B262D" stroke="#0097BC" stroke-width="9"/><path d="M150.44 45.67c7.576-9.23 10.042-11.844 13.509-18.13 1.429-2.58 2.68-3.54 4.682-3.54 2.68 0 4.61 1.82 4.61 4.433 0 4.665-4.61 10.852-4.61 14.028 0 1.356 1.215 2.25 3.216 2.25h9.614c3.073 0 5.539 2.282 5.539 5.16 0 1.621-.607 2.978-1.644 3.772.786.695 1.287 2.051 1.287 3.44 0 1.82-.93 3.54-2.395 4.302.679.76 1.037 1.952 1.037 3.209 0 1.985-1.216 3.672-3.253 4.631.429.728.679 1.49.679 2.382 0 2.35-1.858 4.07-4.824 4.797-1.751.43-4.432.596-7.791.596h-3.717c-4.36 0-8.256-.893-11.508-2.415M150.44 45.67h-5.218c-6.04 0-11.222 6.253-11.222 14.523 0 8.073 5.718 14.392 12.223 14.392h8.648M150.44 45.67l-1.108 1.489c-3.074 4.201-4.253 7.94-4.253 13.134 0 5.392 2.645 9.892 7.183 12.836l2.609 1.456" stroke="#fff" stroke-width="5"/><path d="M319.5 119c0 27.338-22.162 49.5-49.5 49.5s-49.5-22.162-49.5-49.5 22.162-49.5 49.5-49.5 49.5 22.162 49.5 49.5z" fill="#0B262D" stroke="#0097BC" stroke-width="9"/><path d="M259.44 126.33c7.576 9.231 10.042 11.844 13.509 18.13 1.429 2.581 2.68 3.54 4.682 3.54 2.68 0 4.61-1.82 4.61-4.433 0-4.665-4.61-10.852-4.61-14.028 0-1.356 1.215-2.249 3.216-2.249h9.614c3.073 0 5.539-2.283 5.539-5.161 0-1.622-.607-2.978-1.644-3.772.786-.695 1.287-2.051 1.287-3.441 0-1.819-.93-3.54-2.395-4.301.679-.76 1.037-1.951 1.037-3.209 0-1.985-1.216-3.672-3.253-4.631.429-.728.679-1.489.679-2.382 0-2.35-1.858-4.07-4.824-4.797-1.751-.43-4.432-.596-7.791-.596h-3.717c-4.36 0-8.256.893-11.508 2.415m-4.431 28.915h-5.218c-6.04 0-11.222-6.253-11.222-14.524 0-8.072 5.718-14.39 12.223-14.39h8.648m-4.431 28.914l-1.108-1.489c-3.074-4.201-4.253-7.94-4.253-13.134 0-5.392 2.645-9.892 7.183-12.836l2.609-1.456" stroke="#fff" stroke-width="5"/></svg>