<svg width="300" height="300" fill="none" xmlns="http://www.w3.org/2000/svg"><path d="M292.5 150c0 78.701-63.799 142.5-142.5 142.5C71.3 292.5 7.5 228.701 7.5 150 7.5 71.3 71.3 7.5 150 7.5c78.701 0 142.5 63.8 142.5 142.5z" fill="#0B262D" stroke="#0097BC" stroke-width="15"/><path d="M194.44 76.67c7.576-9.23 10.042-11.844 13.509-18.13 1.429-2.58 2.68-3.54 4.682-3.54 2.68 0 4.61 1.82 4.61 4.433 0 4.665-4.61 10.852-4.61 14.028 0 1.356 1.215 2.25 3.216 2.25h9.614c3.073 0 5.539 2.282 5.539 5.16 0 1.622-.607 2.978-1.644 3.772.786.695 1.287 2.051 1.287 3.44 0 1.82-.93 3.54-2.395 4.302.679.76 1.037 1.951 1.037 3.209 0 1.985-1.216 3.672-3.253 4.631.429.728.679 1.489.679 2.382 0 2.349-1.858 4.07-4.824 4.797-1.751.431-4.432.596-7.791.596h-3.717c-4.36 0-8.256-.893-11.508-2.415M194.44 76.67h-5.218c-6.04 0-11.222 6.253-11.222 14.523 0 8.073 5.718 14.392 12.223 14.392h8.648M194.44 76.67l-1.108 1.489c-3.074 4.201-4.253 7.94-4.253 13.134 0 5.392 2.645 9.892 7.183 12.836l2.609 1.456M194.44 212.33c7.576 9.231 10.042 11.844 13.509 18.13 1.429 2.581 2.68 3.54 4.682 3.54 2.68 0 4.61-1.82 4.61-4.433 0-4.665-4.61-10.852-4.61-14.028 0-1.356 1.215-2.249 3.216-2.249h9.614c3.073 0 5.539-2.283 5.539-5.161 0-1.622-.607-2.978-1.644-3.772.786-.695 1.287-2.051 1.287-3.441 0-1.819-.93-3.54-2.395-4.301.679-.76 1.037-1.951 1.037-3.209 0-1.985-1.216-3.672-3.253-4.631.429-.728.679-1.489.679-2.382 0-2.349-1.858-4.07-4.824-4.797-1.751-.431-4.432-.596-7.791-.596h-3.717c-4.36 0-8.256.893-11.508 2.415m-4.431 28.915h-5.218c-6.04 0-11.222-6.253-11.222-14.524 0-8.072 5.718-14.391 12.223-14.391h8.648m-4.431 28.915l-1.108-1.489c-3.074-4.201-4.253-7.94-4.253-13.134 0-5.392 2.645-9.892 7.183-12.836l2.609-1.456" stroke="#fff" stroke-width="5"/><path d="M142.431 61H91.569C85 61 77 69 77 75.677v30.797C77 113 85 121 91 121h3.5v15.84c0 2.205-.134 4.16 2.012 4.16.878 0 1.756-.301 2.44-.902l23.316-18.948h20.163C149 121.15 157 113 157 106.474V75.677C157 69 149 61 142.431 61zm0 106H91.569C85 167 77 175 77 181.677v30.797C77 219 85 227 91 227h3.5v15.84c0 2.205-.134 4.16 2.012 4.16.878 0 1.756-.301 2.44-.902l23.316-18.948h20.163C149 227.15 157 219 157 212.474v-30.797C157 175 149 167 142.431 167z" fill="#fff" stroke="#fff" stroke-width="8"/></svg>