<svg width="300" height="300" fill="none" xmlns="http://www.w3.org/2000/svg"><path d="M292.5 150c0 78.701-63.799 142.5-142.5 142.5C71.3 292.5 7.5 228.701 7.5 150 7.5 71.3 71.3 7.5 150 7.5c78.701 0 142.5 63.8 142.5 142.5z" fill="#0B262D" stroke="#0097BC" stroke-width="15"/><path d="M135.431 70H84.569C78 70 70 78 70 84.677v30.797C70 122 78 130 84 130h3.5v15.84c0 2.205-.134 4.16 2.012 4.16.878 0 1.756-.301 2.44-.902l23.316-18.948h20.163C142 130.15 150 122 150 115.474V84.677C150 78 142 70 135.431 70zm29.138 90h50.862C222 160 230 168 230 174.677v30.797C230 212 222 220 216 220h-3.5v15.84c0 2.205.134 4.16-2.012 4.16a3.689 3.689 0 01-2.439-.902l-23.317-18.948h-20.163C158 220.15 150 212 150 205.474v-30.797C150 168 158 160 164.569 160z" fill="#fff" stroke="#fff" stroke-width="8"/></svg>