<svg width="48" height="48" viewBox="0 0 48 48" fill="none" xmlns="http://www.w3.org/2000/svg">
<path fill-rule="evenodd" clip-rule="evenodd" d="M31.3243 30.0775C32.2648 31.7053 32.7354 32.8419 33.2256 34.0258C33.4611 34.5946 33.7011 35.1744 34 35.8248H46.4084C47.3551 35.8248 48.1124 34.9301 47.9862 33.8978C46.9764 25.9145 43.8209 18 35.4271 18C30.6937 18 27.9564 20.3525 26 24L26.1913 24.1799C27.5074 25.4169 28.7699 26.6035 31.3243 30.0775ZM29.8465 23.5566C30.8436 24.5922 32.0298 25.9728 33.7412 28.3003L33.8391 28.4335L33.9219 28.5766C34.8931 30.2577 35.4785 31.6234 35.9789 32.8248H44.8C44.2709 29.6009 43.3621 26.7144 41.9718 24.6076C40.4788 22.3453 38.4726 21 35.4271 21C33.5917 21 32.3327 21.4445 31.3703 22.1053C30.8336 22.4738 30.3286 22.9516 29.8465 23.5566ZM3.05773 45C3.74244 40.3339 5.00109 36.0502 7.07702 32.9703C9.1151 29.9466 11.9135 28.0824 16.115 28.0824C20.3166 28.0824 23.115 29.9466 25.1531 32.9703C27.229 36.0502 28.4877 40.3339 29.1724 45H3.05773ZM0.0216883 45.0407C-0.167645 46.5547 0.905245 48 2.3568 48H29.8733C31.3249 48 32.3977 46.6236 32.2084 45.0407C30.82 34.9927 26.7808 25.0824 16.115 25.0824C5.44925 25.0824 1.41014 34.9927 0.0216883 45.0407ZM35.7878 11.9247C37.8343 11.9247 39.4933 10.2657 39.4933 8.21917C39.4933 6.17268 37.8343 4.51367 35.7878 4.51367C33.7413 4.51367 32.0823 6.17268 32.0823 8.21917C32.0823 10.2657 33.7413 11.9247 35.7878 11.9247ZM15.8372 17.0208C19.7089 17.0208 22.8476 13.8821 22.8476 10.0104C22.8476 6.13866 19.7089 3 15.8372 3C11.9655 3 8.8268 6.13866 8.8268 10.0104C8.8268 13.8821 11.9655 17.0208 15.8372 17.0208ZM15.8372 20.0208C21.3658 20.0208 25.8476 15.539 25.8476 10.0104C25.8476 4.48181 21.3658 0 15.8372 0C10.3086 0 5.8268 4.48181 5.8268 10.0104C5.8268 15.539 10.3086 20.0208 15.8372 20.0208ZM42.4933 8.21917C42.4933 11.9225 39.4912 14.9247 35.7878 14.9247C32.0845 14.9247 29.0823 11.9225 29.0823 8.21917C29.0823 4.51582 32.0845 1.51367 35.7878 1.51367C39.4912 1.51367 42.4933 4.51582 42.4933 8.21917Z" fill="#333333"/>
</svg>
