<svg width="50" height="50" viewBox="0 0 50 50" fill="none" xmlns="http://www.w3.org/2000/svg">
<path fill-rule="evenodd" clip-rule="evenodd" d="M20.4333 3.5C11.0813 3.5 3.5 11.0813 3.5 20.4333C3.5 29.7853 11.0813 37.3666 20.4333 37.3666C25.1097 37.3666 29.341 35.4729 32.4069 32.4069C35.4729 29.341 37.3666 25.1097 37.3666 20.4333C37.3666 11.0813 29.7853 3.5 20.4333 3.5ZM0.5 20.4333C0.5 9.42444 9.42444 0.5 20.4333 0.5C31.4421 0.5 40.3666 9.42444 40.3666 20.4333C40.3666 25.3972 38.5505 29.9393 35.5492 33.4278L49.0607 46.9393C49.6464 47.5251 49.6464 48.4749 49.0607 49.0607C48.4749 49.6464 47.5251 49.6464 46.9393 49.0607L33.4278 35.5492C29.9393 38.5505 25.3972 40.3666 20.4333 40.3666C9.42444 40.3666 0.5 31.4421 0.5 20.4333Z" fill="#333333"/>
</svg>
