<svg width="48" height="48" viewBox="0 0 48 48" fill="none" xmlns="http://www.w3.org/2000/svg">
<path fill-rule="evenodd" clip-rule="evenodd" d="M10.5 45.5038C10.5 45.5779 10.4997 45.6516 10.4995 45.7247C10.4953 46.9549 10.4917 48 11.7073 48C12.2341 48 12.761 47.8195 13.1707 47.4586L27.161 36.0902H41.6585C45 36.0902 48 33 48 29.6842V6.40601C48 3 45 0 41.6585 0H6.34146C3 0 0 3 0 6.40601V29.6842C0 33 3 36.0902 6.34146 36.0902L10.5 36V45.5038ZM6.31548 33.0901C4.68518 33.0722 3 31.3808 3 29.6842V6.40601C3 4.63734 4.6763 3 6.34146 3H41.6585C43.3237 3 45 4.63734 45 6.40601V29.6842C45 31.3898 43.2969 33.0902 41.6585 33.0902H26.0958L13.5 43.3255V32.9342L6.31548 33.0901Z" fill="#333333"/>
</svg>
