<svg width="218" height="40" viewBox="0 0 218 40" fill="none" xmlns="http://www.w3.org/2000/svg">
<path fill-rule="evenodd" clip-rule="evenodd" d="M20.4241 38.1333C24.14 38.1333 27.6002 37.0616 30.5 35.2166C35.5814 31.9835 38.942 26.3761 38.942 20C38.942 13.6239 35.5814 8.01647 30.5 4.78343C27.6002 2.9384 24.14 1.86667 20.4241 1.86667C10.197 1.86667 1.90625 9.98524 1.90625 20C1.90625 30.0148 10.197 38.1333 20.4241 38.1333ZM20.4241 40C31.704 40 40.8482 31.0457 40.8482 20C40.8482 8.95431 31.704 0 20.4241 0C9.14418 0 0 8.95431 0 20C0 31.0457 9.14418 40 20.4241 40Z" fill="#202124"/>
<path fill-rule="evenodd" clip-rule="evenodd" d="M40.5759 38.1333C50.803 38.1333 59.0938 30.0148 59.0938 20C59.0938 9.98524 50.803 1.86667 40.5759 1.86667C36.86 1.86667 33.3998 2.9384 30.5 4.78343C25.4186 8.01647 22.058 13.6239 22.058 20C22.058 26.3761 25.4186 31.9835 30.5 35.2166C33.3998 37.0616 36.86 38.1333 40.5759 38.1333ZM40.5759 40C51.8558 40 61 31.0457 61 20C61 8.95431 51.8558 0 40.5759 0C29.296 0 20.1518 8.95431 20.1518 20C20.1518 31.0457 29.296 40 40.5759 40Z" fill="#202124"/>
<path d="M85.0972 12.128C88.0972 12.128 90.5332 13.28 92.4052 15.584C92.5972 15.8 92.6932 16.052 92.6932 16.34C92.6932 16.724 92.4892 17.06 92.0812 17.348C91.8652 17.492 91.6372 17.564 91.3972 17.564C91.0372 17.564 90.6892 17.384 90.3532 17.024C89.6332 16.232 88.8412 15.644 87.9772 15.26C87.1132 14.852 86.1532 14.648 85.0972 14.648C83.7772 14.648 82.6012 14.972 81.5692 15.62C80.5372 16.244 79.7332 17.132 79.1572 18.284C78.6052 19.436 78.3292 20.732 78.3292 22.172C78.3292 23.588 78.6292 24.872 79.2292 26.024C79.8292 27.152 80.6692 28.04 81.7492 28.688C82.8292 29.336 84.0652 29.66 85.4572 29.66C87.3772 29.66 88.9252 29.144 90.1012 28.112C90.4132 27.848 90.7372 27.716 91.0732 27.716C91.3612 27.716 91.6252 27.812 91.8652 28.004C92.2012 28.292 92.3692 28.616 92.3692 28.976C92.3692 29.288 92.2492 29.552 92.0092 29.768C90.2812 31.376 88.0972 32.18 85.4572 32.18C83.5852 32.18 81.9052 31.748 80.4172 30.884C78.9292 29.996 77.7532 28.796 76.8892 27.284C76.0492 25.748 75.6292 24.044 75.6292 22.172C75.6292 20.252 76.0372 18.536 76.8532 17.024C77.6692 15.488 78.7972 14.288 80.2372 13.424C81.6772 12.56 83.2972 12.128 85.0972 12.128ZM102.295 13.712C102.295 13.304 102.427 12.968 102.691 12.704C102.955 12.44 103.291 12.308 103.699 12.308C104.107 12.308 104.431 12.44 104.671 12.704C104.935 12.968 105.067 13.304 105.067 13.712V30.596C105.067 31.004 104.935 31.34 104.671 31.604C104.431 31.868 104.107 32 103.699 32C103.291 32 102.955 31.868 102.691 31.604C102.427 31.34 102.295 31.004 102.295 30.596V13.712ZM103.699 4.64C104.227 4.64 104.683 4.82 105.067 5.18C105.451 5.54 105.643 6.008 105.643 6.584C105.643 7.136 105.451 7.604 105.067 7.988C104.683 8.372 104.215 8.564 103.663 8.564C103.111 8.564 102.643 8.372 102.259 7.988C101.899 7.604 101.719 7.136 101.719 6.584C101.719 6.008 101.911 5.54 102.295 5.18C102.679 4.82 103.147 4.64 103.699 4.64ZM124.617 12.092C125.625 12.092 126.417 12.224 126.993 12.488C127.593 12.752 127.893 13.124 127.893 13.604C127.893 13.748 127.881 13.856 127.857 13.928C127.761 14.264 127.605 14.492 127.389 14.612C127.197 14.732 126.921 14.792 126.561 14.792C126.345 14.792 125.973 14.768 125.445 14.72C125.253 14.696 124.965 14.684 124.581 14.684C122.781 14.684 121.305 15.164 120.153 16.124C119.025 17.084 118.461 18.332 118.461 19.868V30.632C118.461 31.064 118.341 31.4 118.101 31.64C117.861 31.88 117.525 32 117.093 32C116.661 32 116.325 31.88 116.085 31.64C115.845 31.4 115.725 31.064 115.725 30.632V13.676C115.725 13.244 115.845 12.908 116.085 12.668C116.325 12.428 116.661 12.308 117.093 12.308C117.525 12.308 117.861 12.428 118.101 12.668C118.341 12.908 118.461 13.244 118.461 13.676V15.26C119.157 14.252 120.045 13.472 121.125 12.92C122.205 12.368 123.369 12.092 124.617 12.092ZM142.796 12.128C145.796 12.128 148.232 13.28 150.104 15.584C150.296 15.8 150.392 16.052 150.392 16.34C150.392 16.724 150.188 17.06 149.78 17.348C149.564 17.492 149.336 17.564 149.096 17.564C148.736 17.564 148.388 17.384 148.052 17.024C147.332 16.232 146.54 15.644 145.676 15.26C144.812 14.852 143.852 14.648 142.796 14.648C141.476 14.648 140.3 14.972 139.268 15.62C138.236 16.244 137.432 17.132 136.856 18.284C136.304 19.436 136.028 20.732 136.028 22.172C136.028 23.588 136.328 24.872 136.928 26.024C137.528 27.152 138.368 28.04 139.448 28.688C140.528 29.336 141.764 29.66 143.156 29.66C145.076 29.66 146.624 29.144 147.8 28.112C148.112 27.848 148.436 27.716 148.772 27.716C149.06 27.716 149.324 27.812 149.564 28.004C149.9 28.292 150.068 28.616 150.068 28.976C150.068 29.288 149.948 29.552 149.708 29.768C147.98 31.376 145.796 32.18 143.156 32.18C141.284 32.18 139.604 31.748 138.116 30.884C136.628 29.996 135.452 28.796 134.588 27.284C133.748 25.748 133.328 24.044 133.328 22.172C133.328 20.252 133.736 18.536 134.552 17.024C135.368 15.488 136.496 14.288 137.936 13.424C139.376 12.56 140.996 12.128 142.796 12.128ZM158.697 5.252C158.697 4.844 158.829 4.52 159.093 4.28C159.357 4.016 159.681 3.884 160.065 3.884C160.473 3.884 160.797 4.016 161.037 4.28C161.301 4.52 161.433 4.844 161.433 5.252V25.772C161.433 26.804 161.637 27.644 162.045 28.292C162.477 28.94 163.017 29.264 163.665 29.264H164.565C164.925 29.264 165.213 29.396 165.429 29.66C165.645 29.9 165.753 30.224 165.753 30.632C165.753 31.04 165.597 31.376 165.285 31.64C164.997 31.88 164.613 32 164.133 32H163.665C162.201 32 161.001 31.424 160.065 30.272C159.153 29.096 158.697 27.596 158.697 25.772V5.252ZM180.475 12.128C182.251 12.128 183.823 12.548 185.191 13.388C186.559 14.204 187.615 15.344 188.359 16.808C189.127 18.272 189.511 19.94 189.511 21.812C189.511 22.196 189.391 22.508 189.151 22.748C188.911 22.964 188.599 23.072 188.215 23.072H173.671C173.863 25.04 174.631 26.636 175.975 27.86C177.319 29.084 178.999 29.696 181.015 29.696C181.879 29.696 182.743 29.552 183.607 29.264C184.495 28.952 185.203 28.568 185.731 28.112C186.043 27.872 186.367 27.752 186.703 27.752C186.967 27.752 187.231 27.848 187.495 28.04C187.807 28.328 187.963 28.652 187.963 29.012C187.963 29.324 187.831 29.6 187.567 29.84C186.775 30.512 185.767 31.076 184.543 31.532C183.319 31.964 182.143 32.18 181.015 32.18C179.095 32.18 177.379 31.76 175.867 30.92C174.355 30.056 173.167 28.868 172.303 27.356C171.463 25.82 171.043 24.092 171.043 22.172C171.043 20.228 171.439 18.5 172.231 16.988C173.047 15.452 174.163 14.264 175.579 13.424C177.019 12.56 178.651 12.128 180.475 12.128ZM180.475 14.612C178.651 14.612 177.139 15.176 175.939 16.304C174.739 17.432 174.007 18.92 173.743 20.768H186.919C186.727 18.92 186.055 17.432 184.903 16.304C183.751 15.176 182.275 14.612 180.475 14.612ZM204.605 12.128C206.189 12.128 207.569 12.404 208.745 12.956C209.921 13.484 210.869 14.228 211.589 15.188C211.781 15.5 211.877 15.776 211.877 16.016C211.877 16.424 211.685 16.748 211.301 16.988C211.133 17.108 210.905 17.168 210.617 17.168C210.113 17.168 209.693 16.988 209.357 16.628C208.181 15.284 206.573 14.612 204.533 14.612C203.213 14.612 202.157 14.888 201.365 15.44C200.573 15.968 200.177 16.64 200.177 17.456C200.177 18.32 200.549 19.016 201.293 19.544C202.037 20.048 203.357 20.456 205.253 20.768C207.821 21.2 209.657 21.908 210.761 22.892C211.865 23.852 212.417 25.052 212.417 26.492C212.417 27.596 212.081 28.58 211.409 29.444C210.761 30.308 209.849 30.98 208.673 31.46C207.497 31.94 206.165 32.18 204.677 32.18C203.189 32.18 201.761 31.928 200.393 31.424C199.025 30.92 197.921 30.212 197.081 29.3C196.841 29.012 196.721 28.736 196.721 28.472C196.721 28.064 196.913 27.704 197.297 27.392C197.585 27.176 197.885 27.068 198.197 27.068C198.605 27.068 198.953 27.236 199.241 27.572C199.817 28.244 200.573 28.76 201.509 29.12C202.469 29.48 203.525 29.66 204.677 29.66C206.357 29.66 207.617 29.372 208.457 28.796C209.297 28.22 209.729 27.464 209.753 26.528C209.753 25.664 209.333 24.944 208.493 24.368C207.653 23.792 206.321 23.36 204.497 23.072C202.145 22.688 200.381 22.028 199.205 21.092C198.053 20.132 197.477 18.98 197.477 17.636C197.477 15.884 198.149 14.528 199.493 13.568C200.861 12.608 202.565 12.128 204.605 12.128Z" fill="#202124"/>
</svg>
