<svg width="261" height="53" fill="none" xmlns="http://www.w3.org/2000/svg"><path d="M43.5 29c0 10.77-8.73 19.5-19.5 19.5S4.5 39.77 4.5 29 13.23 9.5 24 9.5 43.5 18.23 43.5 29z" stroke="#0097BC" stroke-opacity=".5" stroke-width="9"/><path d="M67.5 29c0 10.77-8.73 19.5-19.5 19.5S28.5 39.77 28.5 29 37.23 9.5 48 9.5 67.5 18.23 67.5 29z" stroke="#0097BC" stroke-width="9"/><mask id="a" maskUnits="userSpaceOnUse" x="49.072" y=".784" width="212" height="52" fill="#000"><path fill="#fff" d="M49.072.784h212v52h-212z"/><path d="M87.32 45.496c-.896 1.024-2.155 2.005-3.776 2.944-1.579.939-3.413 1.707-5.504 2.304-2.048.597-4.245.896-6.592.896-4.01 0-7.637-.939-10.88-2.816-3.2-1.92-5.76-4.608-7.68-8.064-1.877-3.456-2.816-7.51-2.816-12.16 0-3.285.576-6.315 1.728-9.088 1.152-2.773 2.752-5.184 4.8-7.232a21.784 21.784 0 017.04-4.736c2.645-1.152 5.44-1.728 8.384-1.728 2.432 0 4.693.384 6.784 1.152 2.133.725 3.99 1.685 5.568 2.88 1.621 1.152 2.88 2.39 3.776 3.712l-4.608 4.8a22.66 22.66 0 00-5.248-4.032c-1.92-1.067-4.01-1.6-6.272-1.6-2.56 0-4.992.64-7.296 1.92-2.261 1.28-4.096 3.115-5.504 5.504-1.408 2.347-2.112 5.163-2.112 8.448 0 3.584.704 6.57 2.112 8.96 1.45 2.39 3.35 4.181 5.696 5.376 2.39 1.152 4.95 1.728 7.68 1.728 2.517 0 4.736-.49 6.656-1.472 1.92-1.024 3.456-2.133 4.608-3.328l3.456 5.632zm14.061-35.392c-1.493 0-2.602-.384-3.328-1.152-.725-.768-1.087-1.77-1.087-3.008 0-1.067.362-2.027 1.088-2.88.725-.853 1.834-1.28 3.327-1.28 1.494 0 2.603.384 3.328 1.152.726.768 1.088 1.77 1.088 3.008 0 1.067-.362 2.027-1.088 2.88-.725.853-1.834 1.28-3.328 1.28zM104.773 51h-6.591V17.4h6.591V51zm30.741-26.496c-.427-.213-.96-.384-1.6-.512a6.96 6.96 0 00-1.92-.256c-1.365 0-2.709.363-4.032 1.088-1.323.683-2.432 1.685-3.328 3.008-.853 1.28-1.28 2.816-1.28 4.608V51h-6.656V17.4h6.656v6.336c.939-2.048 2.347-3.733 4.224-5.056 1.92-1.323 3.925-1.984 6.016-1.984 1.579 0 2.795.213 3.648.64l-1.728 7.168zm11.703 9.664c0 2.219.491 4.203 1.472 5.952 1.024 1.707 2.347 3.072 3.968 4.096 1.664.981 3.435 1.472 5.312 1.472 2.133 0 3.989-.555 5.568-1.664 1.579-1.11 2.859-2.261 3.84-3.456l3.648 4.48c-.811 1.152-1.92 2.24-3.328 3.264-1.408.981-3.008 1.792-4.8 2.432a17.688 17.688 0 01-5.632.896c-3.072 0-5.845-.768-8.32-2.304-2.475-1.536-4.437-3.627-5.888-6.272-1.408-2.645-2.112-5.61-2.112-8.896 0-3.328.704-6.293 2.112-8.896 1.451-2.645 3.413-4.736 5.888-6.272 2.475-1.536 5.248-2.304 8.32-2.304 3.115 0 5.888.64 8.32 1.92 2.432 1.237 4.245 2.859 5.44 4.864l-3.648 4.48c-.981-1.45-2.389-2.688-4.224-3.712-1.792-1.067-3.541-1.6-5.248-1.6-2.005 0-3.819.512-5.44 1.536-1.621.981-2.901 2.347-3.84 4.096-.939 1.707-1.408 3.67-1.408 5.888zM179.163 51V3.64h6.592V51h-6.592zm46.159-4.416h-.064c-1.365 1.323-3.243 2.496-5.632 3.52a18.814 18.814 0 01-7.488 1.536c-3.499 0-6.592-.725-9.28-2.176-2.645-1.493-4.715-3.52-6.208-6.08-1.493-2.603-2.24-5.547-2.24-8.832 0-3.755.789-6.955 2.368-9.6 1.579-2.688 3.669-4.736 6.272-6.144 2.603-1.45 5.44-2.176 8.512-2.176 2.816 0 5.376.704 7.68 2.112 2.304 1.365 4.139 3.264 5.504 5.696 1.365 2.432 2.048 5.27 2.048 8.512l-.064 2.816h-25.728c.384 3.03 1.621 5.44 3.712 7.232 2.133 1.75 4.821 2.624 8.064 2.624 2.347 0 4.245-.427 5.696-1.28 1.451-.896 2.645-1.75 3.584-2.56l3.264 4.8zm-13.76-23.872c-2.517 0-4.715.597-6.592 1.792-1.877 1.152-3.115 3.157-3.712 6.016h18.816v-.448c-.128-1.45-.619-2.73-1.472-3.84a8.129 8.129 0 00-3.072-2.56 8.513 8.513 0 00-3.968-.96zm43.708 3.52a15.652 15.652 0 00-4.096-2.944c-1.493-.768-2.88-1.152-4.16-1.152-.896 0-1.792.107-2.688.32a4.588 4.588 0 00-2.176 1.216c-.597.555-.896 1.387-.896 2.496.043 1.536.725 2.624 2.048 3.264 1.365.64 3.051 1.216 5.056 1.728a36.43 36.43 0 015.12 1.792c1.664.683 3.029 1.707 4.096 3.072 1.109 1.323 1.664 3.2 1.664 5.632 0 2.09-.597 3.883-1.792 5.376-1.152 1.493-2.667 2.645-4.544 3.456a14.931 14.931 0 01-5.824 1.152c-2.432 0-4.843-.427-7.232-1.28-2.347-.896-4.352-2.41-6.016-4.544l4.48-3.84c1.152 1.323 2.453 2.368 3.904 3.136 1.493.725 3.307 1.088 5.44 1.088.811 0 1.621-.128 2.432-.384a5.197 5.197 0 002.048-1.344c.597-.64.896-1.493.896-2.56 0-1.024-.32-1.813-.96-2.368-.597-.597-1.408-1.067-2.432-1.408a29.204 29.204 0 00-3.392-1.024 51.06 51.06 0 01-5.44-1.856c-1.749-.768-3.221-1.835-4.416-3.2-1.152-1.408-1.728-3.307-1.728-5.696 0-2.005.555-3.712 1.664-5.12 1.152-1.45 2.645-2.56 4.48-3.328 1.835-.81 3.797-1.216 5.888-1.216 2.005 0 4.181.427 6.528 1.28 2.347.853 4.288 2.219 5.824 4.096l-3.776 4.16z"/></mask><path d="M87.32 45.496c-.896 1.024-2.155 2.005-3.776 2.944-1.579.939-3.413 1.707-5.504 2.304-2.048.597-4.245.896-6.592.896-4.01 0-7.637-.939-10.88-2.816-3.2-1.92-5.76-4.608-7.68-8.064-1.877-3.456-2.816-7.51-2.816-12.16 0-3.285.576-6.315 1.728-9.088 1.152-2.773 2.752-5.184 4.8-7.232a21.784 21.784 0 017.04-4.736c2.645-1.152 5.44-1.728 8.384-1.728 2.432 0 4.693.384 6.784 1.152 2.133.725 3.99 1.685 5.568 2.88 1.621 1.152 2.88 2.39 3.776 3.712l-4.608 4.8a22.66 22.66 0 00-5.248-4.032c-1.92-1.067-4.01-1.6-6.272-1.6-2.56 0-4.992.64-7.296 1.92-2.261 1.28-4.096 3.115-5.504 5.504-1.408 2.347-2.112 5.163-2.112 8.448 0 3.584.704 6.57 2.112 8.96 1.45 2.39 3.35 4.181 5.696 5.376 2.39 1.152 4.95 1.728 7.68 1.728 2.517 0 4.736-.49 6.656-1.472 1.92-1.024 3.456-2.133 4.608-3.328l3.456 5.632zm14.061-35.392c-1.493 0-2.602-.384-3.328-1.152-.725-.768-1.087-1.77-1.087-3.008 0-1.067.362-2.027 1.088-2.88.725-.853 1.834-1.28 3.327-1.28 1.494 0 2.603.384 3.328 1.152.726.768 1.088 1.77 1.088 3.008 0 1.067-.362 2.027-1.088 2.88-.725.853-1.834 1.28-3.328 1.28zM104.773 51h-6.591V17.4h6.591V51zm30.741-26.496c-.427-.213-.96-.384-1.6-.512a6.96 6.96 0 00-1.92-.256c-1.365 0-2.709.363-4.032 1.088-1.323.683-2.432 1.685-3.328 3.008-.853 1.28-1.28 2.816-1.28 4.608V51h-6.656V17.4h6.656v6.336c.939-2.048 2.347-3.733 4.224-5.056 1.92-1.323 3.925-1.984 6.016-1.984 1.579 0 2.795.213 3.648.64l-1.728 7.168zm11.703 9.664c0 2.219.491 4.203 1.472 5.952 1.024 1.707 2.347 3.072 3.968 4.096 1.664.981 3.435 1.472 5.312 1.472 2.133 0 3.989-.555 5.568-1.664 1.579-1.11 2.859-2.261 3.84-3.456l3.648 4.48c-.811 1.152-1.92 2.24-3.328 3.264-1.408.981-3.008 1.792-4.8 2.432a17.688 17.688 0 01-5.632.896c-3.072 0-5.845-.768-8.32-2.304-2.475-1.536-4.437-3.627-5.888-6.272-1.408-2.645-2.112-5.61-2.112-8.896 0-3.328.704-6.293 2.112-8.896 1.451-2.645 3.413-4.736 5.888-6.272 2.475-1.536 5.248-2.304 8.32-2.304 3.115 0 5.888.64 8.32 1.92 2.432 1.237 4.245 2.859 5.44 4.864l-3.648 4.48c-.981-1.45-2.389-2.688-4.224-3.712-1.792-1.067-3.541-1.6-5.248-1.6-2.005 0-3.819.512-5.44 1.536-1.621.981-2.901 2.347-3.84 4.096-.939 1.707-1.408 3.67-1.408 5.888zM179.163 51V3.64h6.592V51h-6.592zm46.159-4.416h-.064c-1.365 1.323-3.243 2.496-5.632 3.52a18.814 18.814 0 01-7.488 1.536c-3.499 0-6.592-.725-9.28-2.176-2.645-1.493-4.715-3.52-6.208-6.08-1.493-2.603-2.24-5.547-2.24-8.832 0-3.755.789-6.955 2.368-9.6 1.579-2.688 3.669-4.736 6.272-6.144 2.603-1.45 5.44-2.176 8.512-2.176 2.816 0 5.376.704 7.68 2.112 2.304 1.365 4.139 3.264 5.504 5.696 1.365 2.432 2.048 5.27 2.048 8.512l-.064 2.816h-25.728c.384 3.03 1.621 5.44 3.712 7.232 2.133 1.75 4.821 2.624 8.064 2.624 2.347 0 4.245-.427 5.696-1.28 1.451-.896 2.645-1.75 3.584-2.56l3.264 4.8zm-13.76-23.872c-2.517 0-4.715.597-6.592 1.792-1.877 1.152-3.115 3.157-3.712 6.016h18.816v-.448c-.128-1.45-.619-2.73-1.472-3.84a8.129 8.129 0 00-3.072-2.56 8.513 8.513 0 00-3.968-.96zm43.708 3.52a15.652 15.652 0 00-4.096-2.944c-1.493-.768-2.88-1.152-4.16-1.152-.896 0-1.792.107-2.688.32a4.588 4.588 0 00-2.176 1.216c-.597.555-.896 1.387-.896 2.496.043 1.536.725 2.624 2.048 3.264 1.365.64 3.051 1.216 5.056 1.728a36.43 36.43 0 015.12 1.792c1.664.683 3.029 1.707 4.096 3.072 1.109 1.323 1.664 3.2 1.664 5.632 0 2.09-.597 3.883-1.792 5.376-1.152 1.493-2.667 2.645-4.544 3.456a14.931 14.931 0 01-5.824 1.152c-2.432 0-4.843-.427-7.232-1.28-2.347-.896-4.352-2.41-6.016-4.544l4.48-3.84c1.152 1.323 2.453 2.368 3.904 3.136 1.493.725 3.307 1.088 5.44 1.088.811 0 1.621-.128 2.432-.384a5.197 5.197 0 002.048-1.344c.597-.64.896-1.493.896-2.56 0-1.024-.32-1.813-.96-2.368-.597-.597-1.408-1.067-2.432-1.408a29.204 29.204 0 00-3.392-1.024 51.06 51.06 0 01-5.44-1.856c-1.749-.768-3.221-1.835-4.416-3.2-1.152-1.408-1.728-3.307-1.728-5.696 0-2.005.555-3.712 1.664-5.12 1.152-1.45 2.645-2.56 4.48-3.328 1.835-.81 3.797-1.216 5.888-1.216 2.005 0 4.181.427 6.528 1.28 2.347.853 4.288 2.219 5.824 4.096l-3.776 4.16z" fill="#fff"/><path d="M87.32 45.496c-.896 1.024-2.155 2.005-3.776 2.944-1.579.939-3.413 1.707-5.504 2.304-2.048.597-4.245.896-6.592.896-4.01 0-7.637-.939-10.88-2.816-3.2-1.92-5.76-4.608-7.68-8.064-1.877-3.456-2.816-7.51-2.816-12.16 0-3.285.576-6.315 1.728-9.088 1.152-2.773 2.752-5.184 4.8-7.232a21.784 21.784 0 017.04-4.736c2.645-1.152 5.44-1.728 8.384-1.728 2.432 0 4.693.384 6.784 1.152 2.133.725 3.99 1.685 5.568 2.88 1.621 1.152 2.88 2.39 3.776 3.712l-4.608 4.8a22.66 22.66 0 00-5.248-4.032c-1.92-1.067-4.01-1.6-6.272-1.6-2.56 0-4.992.64-7.296 1.92-2.261 1.28-4.096 3.115-5.504 5.504-1.408 2.347-2.112 5.163-2.112 8.448 0 3.584.704 6.57 2.112 8.96 1.45 2.39 3.35 4.181 5.696 5.376 2.39 1.152 4.95 1.728 7.68 1.728 2.517 0 4.736-.49 6.656-1.472 1.92-1.024 3.456-2.133 4.608-3.328l3.456 5.632zm14.061-35.392c-1.493 0-2.602-.384-3.328-1.152-.725-.768-1.087-1.77-1.087-3.008 0-1.067.362-2.027 1.088-2.88.725-.853 1.834-1.28 3.327-1.28 1.494 0 2.603.384 3.328 1.152.726.768 1.088 1.77 1.088 3.008 0 1.067-.362 2.027-1.088 2.88-.725.853-1.834 1.28-3.328 1.28zM104.773 51h-6.591V17.4h6.591V51zm30.741-26.496c-.427-.213-.96-.384-1.6-.512a6.96 6.96 0 00-1.92-.256c-1.365 0-2.709.363-4.032 1.088-1.323.683-2.432 1.685-3.328 3.008-.853 1.28-1.28 2.816-1.28 4.608V51h-6.656V17.4h6.656v6.336c.939-2.048 2.347-3.733 4.224-5.056 1.92-1.323 3.925-1.984 6.016-1.984 1.579 0 2.795.213 3.648.64l-1.728 7.168zm11.703 9.664c0 2.219.491 4.203 1.472 5.952 1.024 1.707 2.347 3.072 3.968 4.096 1.664.981 3.435 1.472 5.312 1.472 2.133 0 3.989-.555 5.568-1.664 1.579-1.11 2.859-2.261 3.84-3.456l3.648 4.48c-.811 1.152-1.92 2.24-3.328 3.264-1.408.981-3.008 1.792-4.8 2.432a17.688 17.688 0 01-5.632.896c-3.072 0-5.845-.768-8.32-2.304-2.475-1.536-4.437-3.627-5.888-6.272-1.408-2.645-2.112-5.61-2.112-8.896 0-3.328.704-6.293 2.112-8.896 1.451-2.645 3.413-4.736 5.888-6.272 2.475-1.536 5.248-2.304 8.32-2.304 3.115 0 5.888.64 8.32 1.92 2.432 1.237 4.245 2.859 5.44 4.864l-3.648 4.48c-.981-1.45-2.389-2.688-4.224-3.712-1.792-1.067-3.541-1.6-5.248-1.6-2.005 0-3.819.512-5.44 1.536-1.621.981-2.901 2.347-3.84 4.096-.939 1.707-1.408 3.67-1.408 5.888zM179.163 51V3.64h6.592V51h-6.592zm46.159-4.416h-.064c-1.365 1.323-3.243 2.496-5.632 3.52a18.814 18.814 0 01-7.488 1.536c-3.499 0-6.592-.725-9.28-2.176-2.645-1.493-4.715-3.52-6.208-6.08-1.493-2.603-2.24-5.547-2.24-8.832 0-3.755.789-6.955 2.368-9.6 1.579-2.688 3.669-4.736 6.272-6.144 2.603-1.45 5.44-2.176 8.512-2.176 2.816 0 5.376.704 7.68 2.112 2.304 1.365 4.139 3.264 5.504 5.696 1.365 2.432 2.048 5.27 2.048 8.512l-.064 2.816h-25.728c.384 3.03 1.621 5.44 3.712 7.232 2.133 1.75 4.821 2.624 8.064 2.624 2.347 0 4.245-.427 5.696-1.28 1.451-.896 2.645-1.75 3.584-2.56l3.264 4.8zm-13.76-23.872c-2.517 0-4.715.597-6.592 1.792-1.877 1.152-3.115 3.157-3.712 6.016h18.816v-.448c-.128-1.45-.619-2.73-1.472-3.84a8.129 8.129 0 00-3.072-2.56 8.513 8.513 0 00-3.968-.96zm43.708 3.52a15.652 15.652 0 00-4.096-2.944c-1.493-.768-2.88-1.152-4.16-1.152-.896 0-1.792.107-2.688.32a4.588 4.588 0 00-2.176 1.216c-.597.555-.896 1.387-.896 2.496.043 1.536.725 2.624 2.048 3.264 1.365.64 3.051 1.216 5.056 1.728a36.43 36.43 0 015.12 1.792c1.664.683 3.029 1.707 4.096 3.072 1.109 1.323 1.664 3.2 1.664 5.632 0 2.09-.597 3.883-1.792 5.376-1.152 1.493-2.667 2.645-4.544 3.456a14.931 14.931 0 01-5.824 1.152c-2.432 0-4.843-.427-7.232-1.28-2.347-.896-4.352-2.41-6.016-4.544l4.48-3.84c1.152 1.323 2.453 2.368 3.904 3.136 1.493.725 3.307 1.088 5.44 1.088.811 0 1.621-.128 2.432-.384a5.197 5.197 0 002.048-1.344c.597-.64.896-1.493.896-2.56 0-1.024-.32-1.813-.96-2.368-.597-.597-1.408-1.067-2.432-1.408a29.204 29.204 0 00-3.392-1.024 51.06 51.06 0 01-5.44-1.856c-1.749-.768-3.221-1.835-4.416-3.2-1.152-1.408-1.728-3.307-1.728-5.696 0-2.005.555-3.712 1.664-5.12 1.152-1.45 2.645-2.56 4.48-3.328 1.835-.81 3.797-1.216 5.888-1.216 2.005 0 4.181.427 6.528 1.28 2.347.853 4.288 2.219 5.824 4.096l-3.776 4.16z" stroke="#fff" stroke-width="2" mask="url(#a)"/></svg>