<svg width="384" height="56" viewBox="0 0 384 56" fill="none" xmlns="http://www.w3.org/2000/svg">
<path d="M53.8482 28C53.8482 41.9177 42.4371 53.25 28.2991 53.25C14.1611 53.25 2.75 41.9177 2.75 28C2.75 14.0823 14.1611 2.75 28.2991 2.75C42.4371 2.75 53.8482 14.0823 53.8482 28Z" stroke="#202124" stroke-width="5.5"/>
<path d="M81.7701 28C81.7701 41.9177 70.359 53.25 56.221 53.25C42.083 53.25 30.6719 41.9177 30.6719 28C30.6719 14.0823 42.083 2.75 56.221 2.75C70.359 2.75 81.7701 14.0823 81.7701 28Z" stroke="#202124" stroke-width="5.5"/>
<path d="M129.169 16.3645C135.158 16.3645 140.022 18.6414 143.759 23.1952C144.143 23.6221 144.334 24.1202 144.334 24.6894C144.334 25.4484 143.927 26.1125 143.113 26.6817C142.681 26.9663 142.226 27.1086 141.747 27.1086C141.028 27.1086 140.333 26.7528 139.663 26.0413C138.225 24.476 136.644 23.3138 134.919 22.5548C133.194 21.7484 131.277 21.3452 129.169 21.3452C126.533 21.3452 124.185 21.9856 122.125 23.2664C120.065 24.4997 118.459 26.2548 117.309 28.5317C116.207 30.8086 115.656 33.3701 115.656 36.2162C115.656 39.0149 116.255 41.5527 117.453 43.8296C118.651 46.059 120.328 47.8141 122.484 49.0949C124.641 50.3756 127.108 51.016 129.888 51.016C133.721 51.016 136.812 49.9961 139.159 47.9564C139.782 47.4346 140.429 47.1737 141.1 47.1737C141.675 47.1737 142.202 47.3635 142.681 47.743C143.352 48.3122 143.688 48.9526 143.688 49.6641C143.688 50.2808 143.448 50.8025 142.969 51.2295C139.519 54.4076 135.158 55.9967 129.888 55.9967C126.15 55.9967 122.796 55.1429 119.825 53.4352C116.854 51.6801 114.506 49.3083 112.781 46.3199C111.104 43.284 110.266 39.9161 110.266 36.2162C110.266 32.4214 111.08 29.0297 112.709 26.0413C114.339 23.0055 116.591 20.6337 119.466 18.926C122.341 17.2184 125.575 16.3645 129.169 16.3645Z" fill="#202124"/>
<path d="M163.504 19.4952C163.504 18.6888 163.767 18.0248 164.294 17.503C164.822 16.9812 165.492 16.7203 166.307 16.7203C167.122 16.7203 167.768 16.9812 168.248 17.503C168.775 18.0248 169.038 18.6888 169.038 19.4952V52.866C169.038 53.6724 168.775 54.3365 168.248 54.8583C167.768 55.38 167.122 55.6409 166.307 55.6409C165.492 55.6409 164.822 55.38 164.294 54.8583C163.767 54.3365 163.504 53.6724 163.504 52.866V19.4952ZM166.307 1.56471C167.361 1.56471 168.272 1.92047 169.038 2.632C169.805 3.34353 170.188 4.26852 170.188 5.40696C170.188 6.49798 169.805 7.42296 169.038 8.18193C168.272 8.94089 167.337 9.32038 166.235 9.32038C165.133 9.32038 164.199 8.94089 163.432 8.18193C162.713 7.42296 162.354 6.49798 162.354 5.40696C162.354 4.26852 162.737 3.34353 163.504 2.632C164.271 1.92047 165.205 1.56471 166.307 1.56471Z" fill="#202124"/>
<path d="M208.071 16.2934C210.084 16.2934 211.665 16.5543 212.815 17.076C214.013 17.5978 214.612 18.3331 214.612 19.2818C214.612 19.5664 214.588 19.7799 214.54 19.9222C214.348 20.5863 214.037 21.0369 213.605 21.2741C213.222 21.5112 212.671 21.6298 211.952 21.6298C211.521 21.6298 210.778 21.5824 209.724 21.4875C209.341 21.4401 208.766 21.4164 207.999 21.4164C204.405 21.4164 201.458 22.3651 199.158 24.2625C196.906 26.1599 195.78 28.6265 195.78 31.6624V52.9371C195.78 53.791 195.541 54.4551 195.062 54.9294C194.582 55.4038 193.912 55.6409 193.049 55.6409C192.187 55.6409 191.516 55.4038 191.037 54.9294C190.557 54.4551 190.318 53.791 190.318 52.9371V19.4241C190.318 18.5703 190.557 17.9062 191.037 17.4318C191.516 16.9575 192.187 16.7203 193.049 16.7203C193.912 16.7203 194.582 16.9575 195.062 17.4318C195.541 17.9062 195.78 18.5703 195.78 19.4241V22.5548C197.17 20.5625 198.943 19.0209 201.099 17.9299C203.255 16.8389 205.579 16.2934 208.071 16.2934Z" fill="#202124"/>
<path d="M244.366 16.3645C250.355 16.3645 255.219 18.6414 258.956 23.1952C259.34 23.6221 259.531 24.1202 259.531 24.6894C259.531 25.4484 259.124 26.1125 258.31 26.6817C257.878 26.9663 257.423 27.1086 256.944 27.1086C256.225 27.1086 255.53 26.7528 254.86 26.0413C253.422 24.476 251.841 23.3138 250.116 22.5548C248.391 21.7484 246.474 21.3452 244.366 21.3452C241.73 21.3452 239.382 21.9856 237.322 23.2664C235.262 24.4997 233.656 26.2548 232.506 28.5317C231.404 30.8086 230.853 33.3701 230.853 36.2162C230.853 39.0149 231.452 41.5527 232.65 43.8296C233.848 46.059 235.525 47.8141 237.681 49.0949C239.838 50.3756 242.305 51.016 245.085 51.016C248.918 51.016 252.009 49.9961 254.356 47.9564C254.979 47.4346 255.626 47.1737 256.297 47.1737C256.872 47.1737 257.399 47.3635 257.878 47.743C258.549 48.3122 258.885 48.9526 258.885 49.6641C258.885 50.2808 258.645 50.8025 258.166 51.2295C254.716 54.4076 250.355 55.9967 245.085 55.9967C241.347 55.9967 237.993 55.1429 235.022 53.4352C232.051 51.6801 229.703 49.3083 227.978 46.3199C226.301 43.284 225.463 39.9161 225.463 36.2162C225.463 32.4214 226.277 29.0297 227.906 26.0413C229.536 23.0055 231.788 20.6337 234.663 18.926C237.538 17.2184 240.772 16.3645 244.366 16.3645Z" fill="#202124"/>
<path d="M276.113 2.77431C276.113 1.96791 276.377 1.32753 276.904 0.853176C277.431 0.331389 278.078 0.0704956 278.845 0.0704956C279.659 0.0704956 280.306 0.331389 280.785 0.853176C281.312 1.32753 281.576 1.96791 281.576 2.77431V43.3315C281.576 45.3712 281.983 47.0314 282.798 48.3122C283.66 49.5929 284.738 50.2333 286.032 50.2333H287.829C288.548 50.2333 289.123 50.4942 289.554 51.016C289.985 51.4904 290.201 52.1307 290.201 52.9371C290.201 53.7435 289.889 54.4076 289.266 54.9294C288.691 55.4038 287.925 55.6409 286.966 55.6409H286.032C283.109 55.6409 280.713 54.5025 278.845 52.2256C277.024 49.9013 276.113 46.9366 276.113 43.3315V2.77431Z" fill="#202124"/>
<path d="M319.594 16.3645C323.14 16.3645 326.279 17.1946 329.01 18.8549C331.741 20.4677 333.85 22.7208 335.335 25.6144C336.868 28.508 337.635 31.8047 337.635 35.5047C337.635 36.2636 337.396 36.8803 336.916 37.3546C336.437 37.7816 335.814 37.995 335.048 37.995H306.01C306.393 41.8847 307.927 45.0392 310.61 47.4584C313.293 49.8776 316.648 51.0872 320.673 51.0872C322.398 51.0872 324.123 50.8025 325.848 50.2333C327.621 49.6167 329.034 48.8577 330.088 47.9564C330.711 47.4821 331.358 47.2449 332.029 47.2449C332.556 47.2449 333.083 47.4346 333.61 47.8141C334.233 48.3833 334.545 49.0237 334.545 49.7352C334.545 50.3519 334.281 50.8974 333.754 51.3718C332.173 52.7 330.16 53.8147 327.716 54.716C325.273 55.5698 322.925 55.9967 320.673 55.9967C316.839 55.9967 313.413 55.1666 310.394 53.5064C307.376 51.7987 305.004 49.4506 303.279 46.4622C301.602 43.4264 300.763 40.011 300.763 36.2162C300.763 32.3739 301.554 28.9586 303.135 25.9702C304.764 22.9343 306.992 20.5863 309.819 18.926C312.694 17.2184 315.953 16.3645 319.594 16.3645ZM319.594 21.2741C315.953 21.2741 312.934 22.3888 310.538 24.6183C308.142 26.8477 306.681 29.7887 306.154 33.4412H332.46C332.077 29.7887 330.735 26.8477 328.435 24.6183C326.135 22.3888 323.188 21.2741 319.594 21.2741Z" fill="#202124"/>
<path d="M367.769 16.3645C370.932 16.3645 373.687 16.91 376.035 18.001C378.383 19.0446 380.276 20.5151 381.713 22.4125C382.097 23.0292 382.288 23.5747 382.288 24.049C382.288 24.8554 381.905 25.4958 381.138 25.9702C380.803 26.2073 380.348 26.3259 379.773 26.3259C378.766 26.3259 377.928 25.9702 377.257 25.2586C374.909 22.6023 371.699 21.2741 367.626 21.2741C364.99 21.2741 362.882 21.8196 361.301 22.9106C359.719 23.9542 358.929 25.2824 358.929 26.8952C358.929 28.6028 359.671 29.9784 361.157 31.022C362.642 32.0182 365.278 32.8246 369.063 33.4412C374.19 34.2951 377.856 35.6944 380.06 37.6392C382.264 39.5367 383.366 41.9084 383.366 44.7545C383.366 46.9366 382.696 48.8814 381.354 50.5891C380.06 52.2968 378.239 53.6249 375.891 54.5736C373.543 55.5224 370.884 55.9967 367.913 55.9967C364.942 55.9967 362.091 55.4986 359.36 54.5025C356.629 53.5064 354.425 52.107 352.747 50.3045C352.268 49.7352 352.029 49.1897 352.029 48.668C352.029 47.8616 352.412 47.15 353.179 46.5334C353.754 46.1064 354.353 45.893 354.976 45.893C355.79 45.893 356.485 46.225 357.06 46.8891C358.21 48.2173 359.719 49.2372 361.588 49.9487C363.505 50.6602 365.613 51.016 367.913 51.016C371.267 51.016 373.783 50.4468 375.46 49.3083C377.137 48.1699 378 46.6757 378.048 44.8257C378.048 43.118 377.209 41.695 375.532 40.5565C373.855 39.4181 371.195 38.5642 367.554 37.995C362.858 37.236 359.336 35.9316 356.988 34.0816C354.688 32.1842 353.538 29.9073 353.538 27.2509C353.538 23.7881 354.88 21.108 357.563 19.2106C360.294 17.3132 363.696 16.3645 367.769 16.3645Z" fill="#202124"/>
</svg>
